<?xml version="1.0" standalone="no"?>
<!DOCTYPE svg PUBLIC "-//W3C//DTD SVG 20010904//EN"
 "http://www.w3.org/TR/2001/REC-SVG-20010904/DTD/svg10.dtd">
<svg version="1.0" xmlns="http://www.w3.org/2000/svg"
 width="800.000000pt" height="800.000000pt" viewBox="0 0 800.000000 800.000000"
 preserveAspectRatio="xMidYMid meet">

<g transform="translate(0.000000,800.000000) scale(0.100000,-0.100000)"
fill="#000000" stroke="none">
<path d="M3725 7629 c-858 -73 -1624 -422 -2238 -1018 -712 -692 -1111 -1668
-1084 -2651 8 -297 38 -520 103 -790 219 -897 794 -1692 1585 -2188 359 -226
770 -391 1182 -476 258 -54 430 -70 727 -70 303 -1 449 13 711 65 1415 281
2533 1390 2823 2800 54 260 70 431 70 729 1 303 -13 449 -65 710 -250 1258
-1150 2286 -2367 2704 -459 157 -982 224 -1447 185z m-530 -1245 c-7 -3 -9
-315 -7 -916 l2 -913 670 3 c421 1 670 -1 670 -7 0 -6 -5 -13 -12 -17 -7 -5
-9 -2 -4 7 4 8 -2 3 -14 -11 -12 -14 -19 -18 -15 -10 3 8 -6 2 -20 -15 -15
-16 -24 -23 -20 -15 4 8 -3 4 -15 -10 -12 -14 -19 -18 -15 -10 4 8 -1 6 -10
-5 -9 -11 -20 -20 -25 -20 -5 0 -16 -9 -25 -20 -9 -11 -14 -13 -10 -5 4 8 -3
4 -15 -10 -12 -14 -19 -18 -15 -10 3 8 -6 2 -20 -15 -15 -16 -24 -23 -20 -15
4 8 -3 4 -15 -10 -12 -14 -19 -18 -15 -10 4 8 -3 4 -15 -10 -12 -14 -19 -18
-15 -10 3 8 -6 2 -20 -15 -15 -16 -24 -23 -20 -15 4 8 -3 4 -15 -10 -12 -14
-19 -18 -15 -10 4 8 -1 6 -10 -5 -9 -11 -20 -20 -25 -20 -5 0 -16 -9 -25 -20
-9 -11 -14 -13 -10 -5 4 8 -3 4 -15 -10 -12 -14 -19 -18 -15 -10 3 8 -6 2 -20
-15 -15 -16 -24 -23 -20 -15 4 8 -3 4 -15 -10 -12 -14 -19 -18 -15 -10 4 8 -3
4 -15 -10 -12 -14 -19 -18 -15 -10 3 8 -6 2 -20 -15 -15 -16 -24 -23 -20 -15
4 8 -3 4 -15 -10 -12 -14 -19 -18 -15 -10 4 8 -1 6 -10 -5 -9 -11 -20 -20 -25
-20 -5 0 -16 -9 -25 -20 -9 -11 -14 -13 -10 -5 4 8 -3 4 -15 -10 -12 -14 -19
-18 -15 -10 3 8 -6 2 -20 -15 -15 -16 -24 -23 -20 -15 4 8 -3 4 -15 -10 -12
-14 -19 -18 -15 -10 4 8 -3 4 -15 -10 -12 -14 -19 -18 -15 -10 3 8 -6 2 -20
-15 -15 -16 -24 -23 -20 -15 4 8 -3 4 -15 -10 -12 -14 -19 -18 -15 -10 4 8 -1
6 -10 -5 -9 -11 -20 -20 -25 -20 -5 0 -16 -9 -25 -20 -9 -11 -14 -13 -10 -5 4
8 -3 4 -15 -10 -12 -14 -19 -18 -15 -10 3 8 -6 2 -20 -15 -15 -16 -24 -23 -20
-15 4 8 -3 4 -15 -10 -12 -14 -19 -18 -15 -10 4 8 -3 4 -15 -10 -12 -14 -19
-18 -15 -10 3 8 -6 2 -20 -15 -15 -16 -24 -23 -20 -15 4 8 -3 4 -15 -10 -12
-14 -19 -18 -15 -10 4 8 -1 6 -10 -5 -9 -11 -20 -20 -25 -20 -5 0 -16 -9 -25
-20 -9 -11 -14 -13 -10 -5 4 8 -3 4 -15 -10 -12 -14 -19 -18 -15 -10 4 8 -2 5
-13 -7 -11 -12 -22 -19 -26 -16 -3 4 -5 -264 -4 -594 2 -331 0 -601 -4 -600
-4 1 -14 -7 -23 -18 -9 -11 -14 -13 -10 -5 4 8 -6 1 -22 -15 -15 -17 -26 -26
-23 -20 3 6 -6 -1 -20 -15 -14 -14 -23 -21 -20 -15 3 6 -8 -3 -23 -20 -16 -16
-26 -23 -22 -15 4 8 -5 2 -20 -15 -14 -16 -24 -23 -20 -15 4 8 -6 2 -20 -15
-15 -16 -24 -23 -20 -15 3 8 -6 2 -20 -15 -15 -16 -24 -23 -20 -15 3 8 -6 2
-20 -15 -15 -16 -24 -23 -20 -15 4 8 -6 1 -22 -15 -15 -17 -26 -26 -23 -20 3
6 -6 -1 -20 -15 -14 -14 -23 -21 -20 -15 3 6 -8 -3 -23 -20 -16 -16 -26 -23
-22 -15 4 8 -5 2 -20 -15 -14 -16 -24 -23 -20 -15 4 8 -6 2 -20 -15 -15 -16
-24 -23 -20 -15 3 8 -6 2 -20 -15 -15 -16 -24 -23 -20 -15 4 8 -6 1 -22 -15
-15 -17 -26 -26 -23 -20 3 6 -6 -1 -20 -15 -14 -14 -23 -21 -20 -15 3 6 -6 -1
-20 -15 -14 -14 -23 -21 -20 -15 3 6 -8 -3 -23 -20 -16 -16 -26 -23 -22 -15 4
8 -5 2 -20 -15 -14 -16 -24 -23 -20 -15 4 8 -6 2 -20 -15 -15 -16 -24 -23 -20
-15 3 8 -6 2 -20 -15 -15 -16 -24 -23 -20 -15 4 8 -6 1 -22 -15 -15 -17 -26
-26 -23 -20 3 6 -6 -1 -20 -15 -14 -14 -23 -21 -20 -15 3 6 -8 -3 -23 -20 -16
-16 -26 -23 -22 -15 4 8 -5 2 -20 -15 -14 -16 -24 -23 -20 -15 4 8 -5 2 -18
-14 -14 -16 -27 -24 -31 -18 -8 14 -8 3954 1 3961 3 3 3 -1 -1 -9 -5 -8 4 -1
19 15 14 17 23 23 20 15 -4 -8 5 -1 20 15 14 17 24 23 20 15 -4 -8 6 -1 20 15
15 17 24 23 20 15 -3 -8 6 -1 20 15 15 17 24 23 20 15 -4 -8 6 -1 22 15 15 17
26 26 23 20 -3 -6 6 1 20 15 14 14 23 21 20 15 -3 -6 6 1 20 15 14 14 23 21
20 15 -3 -6 8 3 23 20 16 16 26 23 22 15 -4 -8 5 -1 20 15 14 17 24 23 20 15
-4 -8 6 -1 20 15 15 17 24 23 20 15 -3 -8 6 -1 20 15 15 17 24 23 20 15 -4 -8
6 -1 22 15 15 17 26 26 23 20 -3 -6 6 1 20 15 14 14 23 21 20 15 -3 -6 8 3 23
20 16 16 26 23 22 15 -4 -8 5 -1 20 15 14 17 24 23 20 15 -4 -8 6 -1 20 15 15
17 24 23 20 15 -3 -8 6 -1 20 15 15 17 24 23 20 15 -3 -8 6 -1 20 15 15 17 24
23 20 15 -4 -8 6 -1 22 15 15 17 26 26 23 20 -3 -6 6 1 20 15 14 14 23 21 20
15 -3 -6 8 3 23 20 16 16 26 23 22 15 -4 -8 5 -1 20 15 14 17 24 23 20 15 -4
-8 6 -1 20 15 15 17 24 23 20 15 -3 -8 6 -1 20 15 15 17 24 23 20 15 -3 -8 6
-1 20 15 15 17 24 23 21 15 -4 -8 5 0 20 18 14 17 32 32 38 31 6 0 7 -2 1 -5z
m2725 -1972 l0 -1979 -22 -19 c-14 -12 -19 -14 -13 -4 4 8 -5 1 -21 -16 -37
-40 -121 -104 -110 -84 4 8 -4 2 -19 -15 -14 -16 -23 -23 -20 -15 4 8 -5 2
-20 -15 -14 -16 -23 -23 -20 -15 4 8 -5 2 -20 -15 -14 -16 -23 -23 -20 -15 4
8 -5 2 -20 -15 -14 -16 -23 -23 -19 -15 3 8 -6 1 -22 -16 -38 -40 -82 -75 -69
-54 6 9 -3 2 -18 -15 -16 -16 -26 -23 -22 -15 4 8 -5 2 -20 -15 -14 -16 -23
-23 -20 -15 4 8 -5 2 -20 -15 -14 -16 -23 -23 -20 -15 4 8 -5 2 -20 -15 -14
-16 -23 -23 -19 -15 3 8 -6 1 -22 -16 -35 -37 -123 -105 -109 -83 6 8 -3 1
-18 -16 -16 -16 -26 -23 -22 -15 4 8 -5 2 -20 -15 -14 -16 -23 -23 -20 -15 4
8 -5 2 -20 -15 -14 -16 -23 -23 -20 -15 4 8 -5 2 -20 -15 -14 -16 -23 -23 -19
-15 3 8 -6 1 -22 -16 -37 -40 -121 -104 -110 -84 4 8 -4 2 -19 -15 -14 -16
-23 -23 -20 -15 4 8 -5 2 -20 -15 -14 -16 -23 -23 -20 -15 4 8 -3 4 -14 -10
l-21 -25 0 927 0 928 -656 2 c-426 2 -659 0 -667 -7 -6 -5 -5 -2 2 7 7 10 17
15 22 12 5 -3 9 -1 9 5 0 5 14 20 32 32 18 13 28 17 24 8 -4 -7 2 -3 14 11 12
14 19 18 15 10 -4 -8 3 -3 16 11 13 14 33 32 43 40 17 12 19 12 12 -1 -4 -8 2
-4 14 10 12 14 19 18 15 10 -4 -8 5 -1 20 15 14 17 23 23 20 15 -4 -8 3 -4 15
10 12 14 19 18 15 10 -4 -8 3 -3 16 11 13 14 33 32 43 40 17 12 19 12 12 -1
-4 -8 2 -4 14 10 12 14 19 18 15 10 -4 -8 3 -3 16 11 13 14 33 32 43 40 17 12
19 12 12 -1 -4 -8 2 -4 14 10 12 14 19 18 15 10 -4 -8 5 -1 20 15 14 17 23 23
20 15 -4 -8 3 -4 15 10 12 14 19 18 15 10 -4 -8 3 -3 16 11 13 14 33 32 43 40
17 12 19 12 12 -1 -4 -8 2 -4 14 10 12 14 19 18 15 10 -4 -8 3 -3 16 11 13 14
33 32 43 40 17 12 19 12 12 -1 -4 -8 2 -4 14 10 12 14 19 18 15 10 -4 -8 5 -1
20 15 14 17 23 23 20 15 -4 -8 3 -4 15 10 12 14 19 18 15 10 -4 -8 3 -3 16 11
13 14 33 32 43 40 17 12 19 12 12 -1 -4 -8 2 -4 14 10 12 14 19 18 15 10 -4
-8 3 -3 16 11 13 14 33 32 43 40 17 12 19 12 12 -1 -4 -8 2 -4 14 10 12 14 19
18 15 10 -4 -8 5 -1 20 15 14 17 23 23 20 15 -4 -8 3 -4 15 10 12 14 19 18 15
10 -4 -8 3 -3 16 11 13 14 33 32 43 40 17 12 19 12 12 -1 -4 -8 2 -4 14 10 12
14 19 18 15 10 -4 -8 3 -3 16 11 13 14 33 32 43 40 17 12 19 12 12 -1 -4 -8 2
-4 14 10 12 14 19 18 15 10 -4 -8 1 -6 9 4 14 18 16 88 16 612 0 551 1 592 18
605 15 12 16 12 7 -1 -5 -9 3 -2 18 15 16 16 26 23 22 15 -4 -8 5 -1 20 15 14
17 23 23 20 15 -4 -8 5 -1 20 15 14 17 23 23 20 15 -4 -8 5 -1 20 15 14 17 23
23 19 15 -3 -8 6 -1 22 16 35 37 123 105 109 83 -5 -8 3 -1 18 16 16 16 26 23
22 15 -4 -8 5 -1 20 15 14 17 23 23 20 15 -4 -8 5 -1 20 15 14 17 23 23 20 15
-4 -8 5 -1 20 15 14 17 23 23 19 15 -3 -8 6 -1 22 16 37 40 121 104 110 84 -4
-8 4 -1 19 15 14 17 23 23 20 15 -4 -8 5 -1 20 15 14 17 23 23 20 15 -4 -8 5
-1 20 15 14 17 23 23 20 15 -4 -8 5 -1 20 15 14 17 23 23 19 15 -3 -8 6 -1 22
16 37 40 121 104 110 84 -4 -8 4 -1 19 15 14 17 23 23 20 15 -4 -8 5 -1 20 15
14 17 23 23 20 15 -4 -8 5 -1 20 15 14 17 23 23 20 15 -4 -8 5 -1 20 15 14 17
24 23 20 15 -4 -8 3 -3 15 13 12 15 26 27 31 27 5 0 9 -786 9 -1978z"/>
</g>
</svg>
