<?xml version="1.0" standalone="no"?>
<!DOCTYPE svg PUBLIC "-//W3C//DTD SVG 20010904//EN"
 "http://www.w3.org/TR/2001/REC-SVG-20010904/DTD/svg10.dtd">
<svg version="1.0" xmlns="http://www.w3.org/2000/svg"
 width="659.000000pt" height="398.000000pt" viewBox="0 0 659.000000 398.000000"
 preserveAspectRatio="xMidYMid meet">

<g transform="translate(0.000000,398.000000) scale(0.100000,-0.100000)"
fill="#000000" stroke="none">
<path d="M3266 3806 c-9 -30 -21 -58 -26 -61 -6 -4 -19 -24 -30 -45 -29 -57
-123 -164 -188 -213 -95 -72 -186 -116 -320 -152 -122 -34 -134 -35 -298 -35
-94 0 -206 4 -250 10 -285 35 -397 43 -599 43 -232 0 -274 -6 -445 -63 -152
-51 -343 -206 -449 -364 -39 -58 -66 -84 -123 -122 -40 -27 -113 -89 -164
-139 -159 -157 -249 -322 -286 -525 -15 -82 -22 -313 -9 -305 7 4 11 -9 11
-36 0 -51 48 -220 67 -235 7 -6 13 -17 13 -25 0 -15 37 -80 81 -145 14 -22 62
-74 105 -116 43 -43 90 -89 104 -103 14 -14 29 -25 33 -25 4 0 32 -17 62 -38
34 -24 70 -62 101 -107 74 -111 248 -275 314 -296 38 -12 69 -34 35 -24 -11 3
-1 -4 23 -15 23 -12 75 -30 115 -40 40 -10 66 -19 58 -19 -36 -2 4 -11 119
-26 97 -14 160 -16 285 -11 192 8 500 32 465 36 -41 5 174 17 325 19 164 1
289 -8 260 -20 -18 -7 -17 -8 6 -8 34 -1 190 -47 198 -59 3 -5 30 -21 60 -36
115 -57 233 -173 298 -293 55 -100 63 -118 63 -135 0 -31 18 -19 24 17 4 19
13 38 20 42 7 5 23 34 35 65 14 34 28 55 34 51 6 -4 8 0 4 11 -4 9 -3 15 2 11
5 -3 19 11 31 30 31 50 129 144 157 151 12 4 20 10 18 15 -3 5 21 21 54 35 33
15 58 31 56 35 -6 8 72 33 170 54 33 8 51 14 40 16 -43 5 117 17 241 18 161 1
384 -10 360 -18 -29 -11 327 -36 504 -36 153 0 401 23 355 33 -12 3 17 15 70
29 50 13 95 30 101 38 7 9 19 13 28 9 10 -4 16 -2 14 5 -2 6 20 22 47 36 28
13 46 25 42 25 -5 0 13 17 40 38 71 57 164 155 176 185 3 9 10 17 15 17 5 0
17 17 28 37 18 36 51 72 66 73 4 0 19 11 34 25 15 14 31 25 35 25 15 0 150
126 205 191 76 91 89 110 112 167 12 31 21 46 18 33 -3 -13 -1 -20 3 -15 12
12 49 139 57 194 6 34 9 40 14 25 13 -35 25 70 25 215 0 148 -13 268 -25 236
-5 -15 -10 -3 -19 41 -13 70 -49 176 -51 153 0 -8 -10 8 -20 35 -11 28 -31 63
-45 79 -14 16 -25 33 -25 37 0 4 -16 25 -36 46 -20 21 -48 52 -63 68 -34 39
-129 119 -160 135 -14 7 -30 17 -35 21 -6 5 -26 20 -43 35 -18 14 -33 32 -33
39 0 8 -6 18 -14 22 -7 4 -25 26 -38 49 -34 54 -185 204 -205 204 -9 0 -13 3
-10 7 13 12 -150 100 -243 130 -162 53 -191 57 -410 56 -189 -1 -293 -8 -505
-35 -44 -5 -182 -12 -307 -15 l-227 -5 -108 31 c-59 18 -145 51 -191 74 -92
47 -229 157 -268 217 -15 22 -30 40 -33 40 -4 0 -21 28 -37 63 -16 34 -34 67
-40 72 -7 6 -14 22 -18 38 -10 41 -23 33 -40 -27z m194 -390 c0 -6 -7 -1 -15
10 -8 10 -15 23 -15 28 0 6 7 1 15 -10 8 -10 15 -23 15 -28z m-372 -20 c-10
-7 -18 -16 -18 -20 0 -11 -43 -45 -57 -46 -7 0 -16 -6 -20 -13 -14 -22 -61
-47 -120 -62 -89 -23 -86 -17 9 18 85 32 122 51 76 40 -12 -3 2 8 33 24 30 16
65 39 77 51 12 12 25 22 30 22 4 0 -1 -7 -10 -14z m441 -27 c-15 -9 -32 -2
-24 11 3 5 13 6 21 3 12 -4 13 -8 3 -14z m60 -25 c2 -2 -3 -6 -12 -10 -9 -3
-24 1 -33 11 -15 15 -14 15 12 9 16 -4 31 -8 33 -10z m26 -34 c-34 -7 -40 -5
-31 8 3 5 18 7 33 4 l28 -6 -30 -6z m64 -21 c-11 -7 109 -48 144 -50 21 -1 21
-1 -3 -8 -29 -9 -28 -9 182 -37 111 -15 144 -15 250 -5 68 7 204 16 303 21
216 10 221 11 170 20 -22 4 84 7 235 7 151 0 259 -3 240 -6 -30 -6 -23 -8 45
-15 44 -4 107 -16 139 -25 l59 -18 -43 -7 c-23 -4 -45 -4 -48 -1 -3 3 3 5 13
5 46 0 -3 12 -101 26 -182 24 -363 28 -512 10 -74 -9 -184 -16 -245 -16 -62 0
-130 -3 -152 -7 l-40 -7 35 -7 c19 -3 -68 -6 -195 -6 -126 0 -210 3 -185 6 45
7 45 7 -25 14 -78 8 -196 34 -208 47 -5 4 4 6 20 4 l28 -4 -25 10 c-14 6 -33
9 -42 6 -10 -2 -18 -1 -18 4 0 4 -12 11 -27 15 -14 3 -34 12 -44 18 -14 11
-11 12 21 12 22 0 34 -2 29 -6z m-1834 -58 c-40 -5 -24 -8 80 -14 72 -4 223
-14 336 -23 193 -16 213 -16 325 0 211 30 202 28 174 36 -16 5 -2 7 37 6 34 0
60 -2 58 -4 -9 -9 -146 -42 -176 -42 -20 0 -52 -3 -70 -7 l-34 -7 30 -7 c17
-4 -69 -6 -190 -6 -121 0 -197 3 -170 6 l50 6 -70 8 c-38 4 -115 7 -170 7 -55
1 -134 5 -175 10 -190 23 -359 23 -525 0 -151 -20 -198 -30 -145 -30 13 0 21
-2 18 -5 -3 -3 -25 -3 -48 1 l-44 7 65 18 c35 10 96 21 134 25 58 6 65 9 40
15 -16 3 94 6 245 6 151 0 253 -3 225 -6z m-730 -97 c-38 -13 -74 -23 -80 -20
-11 4 112 45 135 45 8 0 -16 -11 -55 -25z m4365 5 c0 -5 -12 -6 -27 -3 -42 10
-47 21 -8 16 19 -2 35 -8 35 -13z m66 -20 c6 -10 -2 -11 -33 -3 -13 4 -23 10
-23 14 0 10 49 0 56 -11z m-5275 -750 c-5 -13 -10 -19 -10 -12 -1 15 10 45 15
40 3 -2 0 -15 -5 -28z m-24 -71 c-3 -8 -6 -5 -6 6 -1 11 2 17 5 13 3 -3 4 -12
1 -19z m4643 -314 l0 -325 -37 3 -38 3 -3 310 c-1 170 0 315 3 322 2 7 20 13
40 13 l35 0 0 -326z m-4684 220 c-9 -44 -17 -90 -19 -104 -3 -14 -5 -7 -6 18
-1 42 27 177 36 168 2 -2 -3 -39 -11 -82z m6189 -64 l4 -65 -13 70 c-7 39 -16
88 -20 110 l-6 40 15 -45 c8 -25 17 -74 20 -110z m-4625 0 l0 -130 165 0 165
0 0 130 0 130 35 0 35 0 0 -305 0 -305 -35 0 -35 0 0 140 0 140 -165 0 -165 0
0 -140 0 -140 -35 0 c-33 0 -35 2 -35 33 -1 33 -1 570 0 575 0 1 16 2 35 2
l35 0 0 -130z m941 -50 c32 -96 68 -210 80 -252 13 -43 26 -78 30 -78 9 0 26
45 88 240 92 286 82 265 129 268 23 2 42 2 42 0 0 -2 -47 -138 -105 -303 -58
-164 -105 -300 -105 -302 0 -2 -22 -3 -48 -3 l-48 0 -102 293 c-56 160 -102
298 -102 305 0 9 13 12 42 10 l42 -3 57 -175z m554 145 c0 -37 -10 -45 -57
-45 -38 0 -38 0 -38 41 l0 40 48 -3 c45 -3 47 -4 47 -33z m3162 -337 c-1 -40
-3 -8 -3 72 0 80 2 112 3 73 2 -40 2 -106 0 -145z m-6268 60 l-2 -133 -9 80
c-8 71 -4 185 8 185 2 0 3 -60 3 -132z m3089 -86 l2 -212 -35 0 -35 0 0 208
c0 115 3 211 6 215 3 3 18 5 32 4 l27 -2 3 -213z m431 209 c9 -6 11 -18 7 -36
-6 -25 -9 -26 -48 -20 -92 16 -151 2 -164 -38 -9 -28 22 -54 90 -77 124 -41
168 -90 147 -161 -21 -71 -97 -105 -213 -96 -83 7 -108 20 -108 53 0 25 2 26
38 20 20 -3 65 -9 99 -12 57 -6 63 -5 87 19 47 47 29 71 -84 108 -82 28 -117
53 -131 96 -9 28 -8 40 8 71 29 55 88 82 183 82 41 0 81 -4 89 -9z m241 -159
c5 -157 6 -165 29 -183 29 -23 100 -25 141 -4 l30 15 2 168 3 167 35 0 35 0 3
-212 2 -213 -30 0 c-21 0 -30 5 -30 16 0 11 -5 14 -17 9 -131 -54 -222 -43
-259 31 -16 32 -19 66 -22 198 -4 171 -2 179 48 174 l25 -3 5 -163z m665 154
c57 -24 65 -53 65 -246 l0 -170 -25 0 c-14 0 -28 7 -31 15 -5 12 -12 11 -45
-5 -102 -52 -219 4 -219 106 0 78 71 124 192 124 31 0 59 4 62 8 10 17 -14 88
-36 106 -20 16 -34 17 -105 12 -52 -5 -83 -3 -83 3 0 5 -3 16 -6 25 -4 11 4
18 28 25 51 14 164 13 203 -3z m1799 -353 c-9 -46 -21 -86 -25 -88 -4 -3 -1
21 6 52 7 32 17 85 21 118 6 43 10 52 12 31 2 -17 -4 -68 -14 -113z m-6177 9
c8 -46 13 -85 11 -88 -9 -8 -38 129 -37 171 1 43 2 41 26 -83z m40 -104 c-3
-8 -6 -5 -6 6 -1 11 2 17 5 13 3 -3 4 -12 1 -19z m33 -83 c0 -5 -5 -3 -10 5
-5 8 -10 20 -10 25 0 6 5 3 10 -5 5 -8 10 -19 10 -25z m6031 8 c-12 -20 -14
-14 -5 12 4 9 9 14 11 11 3 -2 0 -13 -6 -23z m-5316 -693 c13 -6 15 -9 5 -9
-8 0 -22 4 -30 9 -18 12 -2 12 25 0z m4602 -6 c-3 -3 -12 -4 -19 -1 -8 3 -5 6
6 6 11 1 17 -2 13 -5z m-4537 -18 c0 -2 -9 -6 -20 -9 -11 -3 -18 -1 -14 4 5 9
34 13 34 5z m4475 -25 c-16 -14 -95 -38 -150 -45 -47 -6 -46 -5 20 14 39 11
84 24 100 29 40 12 40 12 30 2z m-4393 -21 c39 -11 73 -22 77 -25 10 -11 -82
8 -128 26 -61 24 -38 24 51 -1z m1371 -17 c-7 -2 -19 -2 -25 0 -7 3 -2 5 12 5
14 0 19 -2 13 -5z m1685 0 c-16 -2 -40 -2 -55 0 -16 2 -3 4 27 4 30 0 43 -2
28 -4z m-1524 -14 c34 -1 37 -2 16 -8 -21 -7 -18 -9 25 -15 53 -8 155 -36 167
-45 4 -3 -19 -6 -50 -7 -37 -1 -48 2 -32 6 23 6 21 8 -15 14 -22 4 -60 12 -85
18 -55 14 -446 19 -550 8 -127 -15 -619 -28 -740 -20 -110 7 -240 29 -240 40
0 3 28 6 63 7 40 1 53 -1 37 -6 -23 -7 -22 -8 15 -15 50 -10 690 -9 770 1 l60
8 -50 6 c-27 4 85 5 250 3 199 -2 292 0 275 6 -22 9 -21 9 9 5 18 -3 52 -5 75
-6z m1310 -1 c-5 -8 65 -10 282 -6 159 3 264 3 234 -1 l-55 -6 81 -8 c117 -11
741 -8 789 3 76 18 90 8 15 -12 -66 -17 -110 -20 -370 -20 -212 -1 -346 4
-475 17 -195 19 -529 17 -615 -5 -41 -10 -78 -18 -165 -34 -48 -10 -7 9 60 27
33 9 83 20 110 24 49 7 49 7 15 12 -30 5 -27 6 25 11 33 4 64 7 68 8 5 1 5 -3
1 -10z m1339 -5 c-7 -2 -21 -2 -30 0 -10 3 -4 5 12 5 17 0 24 -2 18 -5z
m-1536 -69 c-3 -3 -12 -4 -19 -1 -8 3 -5 6 6 6 11 1 17 -2 13 -5z m-825 -42
c32 -13 55 -28 52 -33 -3 -5 5 -13 18 -18 33 -12 53 -37 38 -46 -7 -4 -17 -2
-23 5 -9 10 -9 11 1 6 6 -4 12 -2 12 3 0 6 -6 11 -14 11 -8 0 -31 9 -50 21
-38 22 -50 37 -16 19 12 -6 20 -7 20 -1 0 5 -24 17 -52 26 -29 8 -66 22 -83
30 l-30 15 35 -6 c19 -4 61 -18 92 -32z m714 8 c-88 -33 -117 -38 -71 -13 37
20 103 42 130 42 11 0 -16 -13 -59 -29z m-101 -62 c-22 -11 -41 -25 -43 -29
-2 -5 -11 -9 -19 -9 -39 0 47 58 87 59 8 0 -3 -9 -25 -21z m-475 -68 c0 -5 -2
-10 -4 -10 -3 0 -8 5 -11 10 -3 6 -1 10 4 10 6 0 11 -4 11 -10z m400 6 c0 -2
-7 -7 -16 -10 -8 -3 -12 -2 -9 4 6 10 25 14 25 6z m-370 -21 c10 -12 10 -15
-4 -15 -9 0 -16 7 -16 15 0 8 2 15 4 15 2 0 9 -7 16 -15z m30 -35 c0 -5 -2
-10 -4 -10 -3 0 -8 5 -11 10 -3 6 -1 10 4 10 6 0 11 -4 11 -10z m280 0 c0 -5
-4 -10 -10 -10 -5 0 -10 5 -10 10 0 6 5 10 10 10 6 0 10 -4 10 -10z"/>
<path d="M4483 1841 c-79 -13 -108 -70 -57 -110 31 -25 71 -27 119 -7 34 15
35 17 35 70 0 63 0 63 -97 47z"/>
<path d="M6481 1694 c0 -11 3 -14 6 -6 3 7 2 16 -1 19 -3 4 -6 -2 -5 -13z"/>
</g>
</svg>
